<svg width="26" height="36" viewBox="0 0 26 36" fill="none" xmlns="http://www.w3.org/2000/svg">
<path fill-rule="evenodd" clip-rule="evenodd" d="M15.1668 35.1014L25.3993 24.8689C25.895 24.3732 25.8033 23.6507 25.308 23.1554L25.2822 23.1297C24.7768 22.6243 24.0681 22.5243 23.5624 23.0301L15.7013 30.8911C15.2912 31.3012 14.5872 31.0055 14.5883 30.4273L14.6205 1.97789C14.6217 1.26919 14.0455 0.692985 13.3377 0.693286L13.3368 0.692386C12.628 0.693484 12.0533 1.26818 12.0549 1.97599L12.0815 30.4364C12.0813 31.0155 11.3854 31.3016 10.9765 30.8927L3.20688 23.1231C2.70698 22.6232 1.89618 22.6418 1.39508 23.143L1.36928 23.1687C0.868182 23.6699 0.867881 24.4623 1.36778 24.9622L11.4889 35.0833C12.5044 36.0987 14.1507 36.1175 15.1668 35.1014Z" fill="#222222"/>
</svg>
