<svg width="112" height="24" viewBox="0 0 112 24" fill="none" xmlns="http://www.w3.org/2000/svg">
<g clip-path="url(#clip0_1_13)">
<path d="M55.1099 6.83276C53.7025 6.83276 52.3272 7.36051 51.3196 8.36804C50.3121 9.37556 49.8004 10.7669 49.8004 12.1583C49.8004 13.5656 50.2961 14.9409 51.2877 15.9645C52.2792 16.988 53.6545 17.5157 55.0619 17.5157C56.4692 17.5157 57.8446 16.988 58.8521 15.9805C59.8596 14.9729 60.3714 13.5816 60.3714 12.1902C60.3714 10.7829 59.8756 9.40755 58.8841 8.38403C57.8765 7.37651 56.5172 6.83276 55.1099 6.83276ZM57.9245 12.798C57.8925 12.9899 57.8286 13.1818 57.7646 13.3737C57.7006 13.5496 57.6047 13.7255 57.5087 13.8854C57.4128 14.0454 57.3008 14.1893 57.1729 14.3172C57.0449 14.4452 56.901 14.5571 56.7571 14.6691C56.5972 14.765 56.4372 14.861 56.2613 14.9249C56.0854 15.0049 55.8935 15.0529 55.7016 15.0849C55.5097 15.1169 55.3018 15.1328 55.1099 15.1328C54.902 15.1328 54.71 15.1169 54.5181 15.0689C54.3262 15.0369 54.1343 14.9729 53.9584 14.909C53.7825 14.845 53.6226 14.749 53.4626 14.6531C53.3187 14.5571 53.1748 14.4292 53.0468 14.3012C52.9189 14.1733 52.8069 14.0294 52.711 13.8694C52.615 13.7095 52.5191 13.5336 52.4551 13.3577C52.3751 13.1658 52.3272 12.9739 52.2952 12.782C52.2632 12.5741 52.2472 12.3662 52.2472 12.1583C52.2472 11.9504 52.2632 11.7424 52.3112 11.5345C52.3432 11.3426 52.4071 11.1507 52.4711 10.9588C52.5351 10.7829 52.631 10.607 52.727 10.4471C52.8229 10.2871 52.9349 10.1432 53.0628 10.0153C53.1908 9.88732 53.3347 9.77538 53.4786 9.66343C53.6385 9.56748 53.7985 9.47152 53.9744 9.40755C54.1503 9.32758 54.3422 9.27961 54.5341 9.24762C54.726 9.21564 54.9339 9.19965 55.1258 9.19965C55.3337 9.19965 55.5257 9.21564 55.7176 9.26362C55.9095 9.29561 56.1014 9.35958 56.2773 9.42355C56.4532 9.48751 56.6131 9.58347 56.7731 9.67942C56.917 9.77538 57.0609 9.90332 57.1889 10.0313C57.3168 10.1592 57.4288 10.3031 57.5247 10.4631C57.6207 10.623 57.7166 10.7989 57.7806 10.9748C57.8606 11.1667 57.9085 11.3586 57.9405 11.5505C57.9725 11.7584 57.9885 11.9663 57.9885 12.1742C57.9725 12.3981 57.9565 12.59 57.9245 12.798Z" fill="#1C1E20"/>
<path d="M35.2793 2.72272C33.888 1.60324 32.2727 0.819613 30.5296 0.403809C29.538 0.163922 28.5305 0.051976 27.507 0.0199911C26.7553 -0.0119939 25.9877 0.00399763 25.2361 0.00399763H14.4731C13.7215 0.00399763 12.9538 0.0039986 12.2022 0.0199911C11.1787 0.051976 10.1871 0.163922 9.17962 0.403809C7.43644 0.819613 5.8372 1.60324 4.44585 2.72272C1.63118 4.97765 -6.10352e-05 8.38405 -6.10352e-05 11.9983C-6.10352e-05 15.6126 1.63118 19.019 4.44585 21.274C5.8372 22.3934 7.45243 23.1771 9.19561 23.5929C10.1871 23.8328 11.1947 23.9447 12.2182 23.9767C12.9698 24.0087 13.7375 23.9927 14.4891 23.9927H25.252C26.0037 23.9927 26.7713 23.9927 27.523 23.9767C28.5465 23.9447 29.538 23.8328 30.5455 23.5929C32.2887 23.1771 33.888 22.3934 35.2793 21.274C38.094 19.019 39.7252 15.6126 39.7252 11.9983C39.7252 8.38405 38.094 4.97765 35.2793 2.72272ZM30.0178 15.2288C29.49 15.5967 28.8983 15.8205 28.2746 15.9165C27.6509 16.0125 27.0112 15.9965 26.3875 15.9965H13.3536C12.7139 15.9965 12.0902 16.0125 11.4665 15.9165C10.8268 15.8205 10.2511 15.5967 9.72336 15.2288C8.66786 14.4932 8.02816 13.2937 8.02816 11.9983C8.02816 10.703 8.66786 9.50352 9.72336 8.76787C10.2511 8.40004 10.8428 8.17615 11.4665 8.08019C12.0902 7.98424 12.7299 8.00023 13.3536 8.00023H26.3875C27.0272 8.00023 27.6509 7.98424 28.2746 8.08019C28.9143 8.17615 29.49 8.40004 30.0178 8.76787C31.0733 9.50352 31.713 10.703 31.713 11.9983C31.729 13.2937 31.0893 14.4932 30.0178 15.2288Z" fill="#1C1E20"/>
<path d="M98.2257 11.8704C98.2257 12.1582 98.2257 12.4461 98.2097 12.718C98.1937 12.8939 98.1777 13.0858 98.1457 13.2617C98.0818 13.5976 97.9698 13.9174 97.7939 14.2053C97.3461 14.9089 96.5465 15.2608 95.7469 15.2768C94.9312 15.2928 94.1476 14.9569 93.7158 14.2213C93.5399 13.9174 93.4279 13.5976 93.364 13.2617C93.284 12.8139 93.252 12.3342 93.252 11.8864C93.252 11.5825 93.236 11.2946 93.236 10.9908V9.45551V7.02466H90.8052V11.1667C90.8052 11.5665 90.8052 11.9663 90.8212 12.3661C90.8372 12.654 90.8372 12.9579 90.8691 13.2457C90.9331 13.9334 91.0611 14.6051 91.3649 15.2448C92.0046 16.5402 93.252 17.2918 94.6434 17.4517C95.331 17.5317 96.0347 17.4677 96.6904 17.2758C97.3301 17.0839 98.0018 16.7641 98.4656 16.2683C98.4816 16.5882 98.5135 16.94 98.5295 17.2598H100.657V7.02466H98.2257V11.8704Z" fill="#1C1E20"/>
<path d="M111.276 13.2617C110.924 12.2702 110.06 11.6625 109.149 11.3107C108.637 11.1028 108.109 10.9908 107.581 10.8629C107.341 10.8149 107.118 10.7669 106.878 10.703C106.686 10.655 106.478 10.591 106.286 10.511C106.078 10.4151 105.87 10.3031 105.726 10.1272C105.598 9.98329 105.534 9.79138 105.566 9.59947C105.598 9.37557 105.726 9.18366 105.902 9.03973C106.03 8.94378 106.158 8.86381 106.302 8.81583C106.494 8.73587 106.686 8.70389 106.878 8.67191C107.277 8.62393 107.677 8.65591 108.061 8.73587C108.653 8.86381 109.197 9.08771 109.708 9.40756C110.108 8.84782 110.524 8.30408 110.924 7.74435C110.108 7.15263 109.197 6.78479 108.205 6.62487C107.645 6.54491 107.086 6.52891 106.542 6.60888C106.11 6.67285 105.694 6.7688 105.294 6.94472C104.767 7.16861 104.287 7.48847 103.919 7.95225C103.647 8.2721 103.455 8.65591 103.343 9.05572C103.199 9.55149 103.199 10.0792 103.359 10.591C103.503 11.0548 103.775 11.4386 104.127 11.7585C104.879 12.4141 105.95 12.654 106.862 12.8459C107.182 12.9099 107.501 12.9739 107.821 13.0698C108.077 13.1498 108.349 13.2298 108.573 13.3737C108.749 13.4856 108.925 13.6296 109.037 13.8055C109.133 13.9654 109.181 14.1413 109.165 14.3172C109.149 14.4932 109.085 14.6371 108.973 14.781C108.845 14.941 108.685 15.0529 108.509 15.1489C108.269 15.2608 108.013 15.3248 107.757 15.3568C107.405 15.4047 107.022 15.3887 106.67 15.3408C106.27 15.2928 105.902 15.1968 105.518 15.0689C104.943 14.861 104.447 14.5571 103.967 14.1893C103.535 14.765 103.103 15.3408 102.672 15.9165C103.439 16.5562 104.319 17.02 105.278 17.3078C105.806 17.4518 106.35 17.5477 106.91 17.5637C107.357 17.5797 107.789 17.5477 108.237 17.4838C108.797 17.3878 109.356 17.2119 109.852 16.908C110.22 16.6841 110.524 16.4123 110.796 16.0764C111.132 15.6446 111.34 15.1329 111.42 14.5891C111.467 14.1413 111.436 13.6935 111.276 13.2617Z" fill="#1C1E20"/>
<path d="M68.24 15.0368C67.6803 15.1648 67.0726 15.1488 66.5129 14.9728C65.9531 14.7969 65.4733 14.4451 65.1215 13.9653C64.7857 13.4855 64.6098 12.9098 64.5778 12.3341C64.5458 11.7584 64.6577 11.1506 64.9296 10.6389C65.2175 10.0951 65.6333 9.72732 66.193 9.48743C66.4329 9.39148 66.6728 9.31151 66.9287 9.27953C67.2645 9.23155 67.5684 9.21556 67.9042 9.26354C68.4959 9.32751 69.0397 9.5514 69.5354 9.87125C70.0312 9.24755 70.511 8.62383 71.0067 8.01612C70.1591 7.34444 69.1996 6.96062 68.1441 6.84867C67.1046 6.73673 66.0331 6.89665 65.0735 7.34444C64.114 7.80822 63.3463 8.52789 62.8346 9.47144C62.3388 10.399 62.1309 11.4705 62.1789 12.51C62.2269 13.5495 62.5467 14.589 63.1544 15.4526C63.7622 16.3322 64.6257 16.9559 65.6333 17.2918C66.6248 17.6276 67.7123 17.6916 68.7358 17.4677C69.7593 17.2438 70.7189 16.748 71.4545 15.9804C70.8948 15.4046 70.351 14.8289 69.7913 14.2532C69.3275 14.637 68.7998 14.9089 68.24 15.0368Z" fill="#1C1E20"/>
<path d="M88.1824 1.60312H85.6236V17.2757H88.1824V1.60312Z" fill="#1C1E20"/>
<path d="M80.3781 11.8704C80.3781 12.1582 80.3781 12.4461 80.3621 12.718C80.3461 12.8939 80.3301 13.0858 80.2981 13.2617C80.2341 13.5976 80.1222 13.9174 79.9463 14.2053C79.4985 14.9089 78.6989 15.2608 77.8992 15.2768C77.0836 15.2928 76.3 14.9569 75.8682 14.2213C75.6923 13.9174 75.5803 13.5976 75.5164 13.2617C75.4364 12.8139 75.4044 12.3342 75.4044 11.8864C75.4044 11.5825 75.3884 11.2946 75.3884 10.9908V9.45551V7.02466H72.9576V11.1667C72.9576 11.5665 72.9576 11.9663 72.9736 12.3661C72.9896 12.654 72.9895 12.9579 73.0215 13.2457C73.0855 13.9334 73.2135 14.6051 73.5173 15.2448C74.157 16.5402 75.4044 17.2918 76.7958 17.4517C77.4834 17.5317 78.1871 17.4677 78.8428 17.2758C79.4825 17.0839 80.1542 16.7641 80.618 16.2683C80.6339 16.5882 80.6659 16.94 80.6819 17.2598H82.745V7.02466H80.3781V11.8704Z" fill="#1C1E20"/>
</g>
<defs>
<clipPath id="clip0_1_13">
<rect width="111.446" height="24" fill="white"/>
</clipPath>
</defs>
</svg>
